<svg xmlns="http://www.w3.org/2000/svg" xmlns:xlink="http://www.w3.org/1999/xlink" width="426.429" height="55.303" viewBox="0 0 426.429 55.303"><defs><clipPath id="a"><path d="M0,35.715H426.429v-55.3H0Z" transform="translate(0 19.588)"/></clipPath></defs><g transform="translate(0 19.588)"><g transform="translate(0 -19.588)" clip-path="url(#a)"><g transform="translate(0.001 -0.001)"><path d="M17.05,35.667c-15.734,0-26.4-11.2-26.4-27.615,0-16.72,10.743-27.615,25.949-27.615,13.162,0,21.559,6.508,24.359,17.708a.485.485,0,0,1-.455.6H29.836a.734.734,0,0,1-.757-.6c-1.739-5.906-5.9-8.93-12.408-8.93-9.229,0-14.148,7.264-14.148,18.99,0,11.5,5.071,18.687,14.452,18.687,7.564,0,12.482-4.387,12.784-12.561H16.522a.652.652,0,0,1-.607-.6V6.387a.65.65,0,0,1,.607-.6H41.488a.644.644,0,0,1,.6.6c.229,19.673-8.7,29.28-25.04,29.28" transform="translate(9.351 19.562)"/></g><g transform="translate(57.813 1.135)"><path d="M.39,34.2a.652.652,0,0,1-.6-.607L.012,7.719-.214-18.154a.65.65,0,0,1,.6-.6H10.681a.65.65,0,0,1,.607.6L11.057,7.719l.232,25.876a.653.653,0,0,1-.607.607Z" transform="translate(0.214 18.758)"/></g><g transform="translate(76.659 1.138)"><path d="M6.938,17.881V42.543a.653.653,0,0,1-.607.607H-3.2a.65.65,0,0,1-.6-.607l.15-25.876-.15-25.873a.645.645,0,0,1,.6-.6H9.51a1.054,1.054,0,0,1,.909.528L31.675,28.166l-.455-10.136V-9.206a.65.65,0,0,1,.607-.6h9.531a.647.647,0,0,1,.6.6l-.152,25.873.152,25.876a.652.652,0,0,1-.6.607H28.194a1.055,1.055,0,0,1-.909-.534L6.48,5.473,6.559,6.91Z" transform="translate(3.805 9.807)"/></g><g transform="translate(128.424 0)"><path d="M17.294,29.95c9.534,0,14.828-7.036,14.828-18.608S26.9-7.572,17.221-7.572,2.39-.466,2.39,11.341c0,11.5,5.376,18.608,14.9,18.608M17.221,38.8C1.029,38.8-9.485,27.527-9.485,11.341c0-16.872,10.438-27.767,26.706-27.767C33.336-16.426,44-5.76,44,11.341,44,27.527,33.412,38.8,17.221,38.8" transform="translate(9.485 16.426)"/></g><g transform="translate(205.459 1.136)"><path d="M14.559,5.423H3.514L3.438,21.916H14.861c4.845,0,9-2.27,9-8.021s-3.4-8.473-9.306-8.473m1.666,32.759L11,30.313H3.438l.15,19.066a.65.65,0,0,1-.6.6H-7.384a.647.647,0,0,1-.6-.6l.15-25.876L-7.985-2.37a.645.645,0,0,1,.6-.6H14.1c13.244,0,20.884,5.6,20.884,16.643,0,7.789-4.314,13.165-11.8,15.432l13.238,20.35a.341.341,0,0,1-.3.531H23.941a1.058,1.058,0,0,1-.912-.531Z" transform="translate(7.985 2.974)"/></g><g transform="translate(253.059 0)"><path d="M17.294,29.95c9.534,0,14.831-7.036,14.831-18.608S26.9-7.572,17.221-7.572,2.39-.466,2.39,11.341c0,11.5,5.376,18.608,14.9,18.608M17.221,38.8C1.029,38.8-9.485,27.527-9.485,11.341c0-16.872,10.438-27.767,26.706-27.767C33.336-16.426,44-5.76,44,11.341,44,27.527,33.412,38.8,17.221,38.8" transform="translate(9.485 16.426)"/></g><g transform="translate(311.326)"><path d="M15.487,35.715c-13.919,0-23.529-5.9-23.981-18.459a.653.653,0,0,1,.607-.607H2.929a.715.715,0,0,1,.68.607c.68,5.9,3.408,9.834,12.106,9.834,6.886,0,10.666-2.044,10.666-7.033,0-11.957-33.818-2.5-33.818-23.529,0-9.913,7.716-16.115,21.259-16.115,12.406,0,20.955,4.839,22.547,16.192a.538.538,0,0,1-.531.6h-10.9a.714.714,0,0,1-.678-.6c-.534-4.842-4.393-7.493-10.9-7.493-5.446,0-9.382,1.894-9.382,6.282,0,11.271,33.97,2.12,33.97,23.072,0,11.2-8.625,17.25-22.471,17.25" transform="translate(8.494 19.588)"/></g><g transform="translate(362.335)"><path d="M15.487,35.715c-13.919,0-23.529-5.9-23.981-18.459a.653.653,0,0,1,.607-.607H2.929a.722.722,0,0,1,.683.607c.678,5.9,3.4,9.834,12.1,9.834,6.886,0,10.669-2.044,10.669-7.033,0-11.957-33.82-2.5-33.82-23.529,0-9.913,7.716-16.115,21.259-16.115,12.406,0,20.955,4.839,22.544,16.192a.535.535,0,0,1-.531.6H24.948a.72.72,0,0,1-.683-.6c-.531-4.842-4.39-7.493-10.9-7.493-5.443,0-9.382,1.894-9.382,6.282,0,11.271,33.97,2.12,33.97,23.072,0,11.2-8.625,17.25-22.471,17.25" transform="translate(8.494 19.588)"/></g><g transform="translate(414.931 1.135)"><path d="M.388,34.2a.65.65,0,0,1-.6-.607L.01,7.719-.213-18.154a.647.647,0,0,1,.6-.6H10.679a.65.65,0,0,1,.607.6L11.058,7.719l.229,25.876a.653.653,0,0,1-.607.607Z" transform="translate(0.213 18.758)"/></g></g></g></svg>